<svg width="35" height="35" fill="none" xmlns="http://www.w3.org/2000/svg"><path fill-rule="evenodd" clip-rule="evenodd" d="M21.742 11.667c1.697.424 2.44 1.379 3.288 2.863h-3.288v-2.863zM9.333 21c0 .318.212.636.636.636h1.167c.212 1.061 1.167 1.803 2.227 1.803 1.061 0 2.016-.742 2.228-1.803h6.045c.212 1.061 1.167 1.803 2.227 1.803 1.061 0 2.016-.742 2.228-1.803h1.06c.319 0 .637-.212.637-.636v-3.5c0-1.697-1.803-1.803-1.803-1.803h-4.773c-.318 0-.636-.212-.636-.636v-3.5H9.863c-.318 0-.636.212-.636.636V21h.106zm15.167-.636c.424.424.424 1.06 0 1.485-.637.636-1.803.212-1.803-.743 0-.848 1.166-1.379 1.803-.742zm-10.394 0c.424.424.424 1.06 0 1.485-.636.636-1.803.212-1.803-.743-.106-.848 1.06-1.379 1.803-.742z" fill="#55A5B9"/><path d="M17.5 0C7.848 0 0 7.848 0 17.5 0 27.151 7.848 35 17.5 35 27.151 35 35 27.151 35 17.5 35 7.848 27.151 0 17.5 0zm0 34.258C8.273 34.258.742 26.728.742 17.5.742 8.273 8.272.742 17.5.742c9.227 0 16.758 7.53 16.758 16.758 0 9.227-7.53 16.758-16.758 16.758z" fill="#20343E"/></svg>