<svg width="157" height="33" fill="none" xmlns="http://www.w3.org/2000/svg"><path d="M141.198 7.375h4.376v6.727h1.216l5.201-6.727h4.766l-6.564 7.947L157 24.37h-5.105l-5.105-7.188h-1.216v7.188h-4.376V7.375zM0 19.828h1.945c.213-.551.385-1.183.521-1.907.137-.718.249-1.487.33-2.306.08-.815.142-1.66.182-2.524.04-.865.06-1.71.06-2.54V6.424h12.495v13.404h1.727v6.748h-3.793V23.42H3.793v3.156H0v-6.748zm11.158 0v-9.813H7.12v1.022c0 1.973-.076 3.677-.233 5.109-.152 1.431-.4 2.66-.74 3.677h5.01v.005zM19.57 6.424h8.144c1.995 0 3.444.394 4.35 1.178.907.784 1.363 1.907 1.363 3.364 0 .875-.228 1.624-.679 2.246-.456.622-1.068 1.072-1.848 1.345 1.002.228 1.797.683 2.38 1.371.582.688.876 1.584.876 2.681 0 1.487-.491 2.66-1.469 3.52-.982.86-2.557 1.286-4.73 1.286H19.57V6.424zm7.075 6.773c.942 0 1.575-.152 1.91-.45.334-.299.496-.724.496-1.275 0-.566-.167-.991-.496-1.275-.335-.283-.963-.425-1.884-.425h-2.725v3.425h2.7zm.34 6.874c1.053 0 1.782-.157 2.188-.475.405-.314.607-.805.607-1.467 0-.663-.207-1.159-.618-1.482-.415-.324-1.154-.486-2.223-.486H23.95v3.91h3.034zm9.724-13.647h4.376V16.62L47.77 6.424h4.011V23.42h-4.375V13.222L40.72 23.42h-4.01V6.424zm18.476 0h11.426v3.591h-7.05V23.42h-4.376V6.424zm17.503 17.309a5.84 5.84 0 01-.521-.025 3.261 3.261 0 01-.451-.07V20.02c.132.016.258.036.39.051s.283.025.46.025c.355 0 .649-.02.877-.06a1.44 1.44 0 00.557-.208 1.17 1.17 0 00.365-.39 3.14 3.14 0 00.268-.606L67.826 6.424h4.427l4.522 8.62 3.55-8.62h4.28l-5.687 12.868c-.375.825-.74 1.518-1.094 2.074a5.17 5.17 0 01-1.241 1.37 4.378 4.378 0 01-1.641.765c-.633.156-1.383.232-2.254.232zM86.545 6.424h4.376v6.46h6.321v-6.46h4.376V23.42h-4.376v-6.945h-6.32v6.945h-4.377V6.424zm34.835-4.295c-7.952 0-14.394 6.44-14.394 14.376 0 7.936 6.447 14.375 14.394 14.375 7.951 0 14.393-6.439 14.393-14.375 0-7.937-6.442-14.376-14.393-14.376zm0 26.298c-6.595 0-11.938-5.337-11.938-11.922 0-6.586 5.343-11.923 11.938-11.923 6.594 0 11.937 5.337 11.937 11.922 0 6.586-5.348 11.923-11.937 11.923z" fill="#fff"/><path d="M121.38 5.62c-6.017 0-10.899 4.87-10.899 10.884 0 6.01 4.877 10.886 10.899 10.886 6.017 0 10.899-4.871 10.899-10.886-.005-6.009-4.882-10.885-10.899-10.885zm0 21.158c-5.682 0-10.286-4.598-10.286-10.273 0-5.676 4.604-10.274 10.286-10.274 5.683 0 10.286 4.598 10.286 10.274 0 5.675-4.608 10.273-10.286 10.273zm1.119-24.411h-2.922L120.083 0h1.909l.507 2.367zm-4.659.404l-2.76.946-.294-2.403 1.803-.617 1.251 2.074zm-4.275 1.893l-2.305 1.79-1.053-2.18 1.504-1.169 1.854 1.559zm-3.428 3.172l-1.596 2.443-1.707-1.715 1.044-1.598 2.259.87zm-2.209 4.116l-.719 2.828-2.167-1.072.465-1.847 2.421.091zm-.749 4.608l.238 2.91-2.401-.314-.157-1.897 2.32-.698zm.785 4.604l1.175 2.67-2.376.486-.764-1.745 1.965-1.41zm2.238 4.096l1.98 2.145-2.086 1.23-1.292-1.402 1.398-1.972zm3.454 3.153l2.568 1.386-1.57 1.841-1.681-.905.683-2.322zm4.29 1.856l2.877.48-.886 2.251-1.884-.314-.107-2.417zm4.659.369l2.882-.48-.111 2.417-1.879.314-.892-2.251zm4.529-1.163l2.568-1.391.683 2.322-1.676.91-1.575-1.84zm3.905-2.571l1.975-2.144 1.403 1.972-1.292 1.402-2.086-1.23zm2.856-3.696l1.175-2.67 1.965 1.415-.77 1.745-2.37-.49zm1.499-4.422l.243-2.903 2.32.698-.157 1.897-2.406.308zm-.015-4.669l-.719-2.828 2.421-.09.471 1.845-2.173 1.073zm-1.535-4.411l-1.6-2.443 2.264-.87 1.043 1.598-1.707 1.715zm-2.886-3.672l-2.305-1.79 1.854-1.558 1.504 1.168-1.053 2.18zm-3.926-2.538l-2.76-.946 1.246-2.074 1.803.617-.289 2.403z" fill="#fff"/></svg>