<svg width="220" height="48" fill="none" xmlns="http://www.w3.org/2000/svg"><path fill="#606060" d="M0 0h220v48H0z"/><g clip-path="url(#clip0)"><path d="M220 0H0v48h220V0z" fill="#55A5B9"/><path d="M12.578 28.211h2.413c.264-.698.478-1.498.648-2.413.17-.909.308-1.881.408-2.918.1-1.03.176-2.1.227-3.194.05-1.094.075-2.163.075-3.213v-5.222h15.507v16.96h2.143v8.538h-4.708v-3.994H17.286v3.994h-4.708V28.21zm13.847 0V15.795h-5.01v1.293c0 2.496-.094 4.653-.289 6.464-.188 1.811-.496 3.366-.918 4.653h6.217v.006zm10.441-16.96h10.107c2.477 0 4.274.5 5.4 1.491 1.125.992 1.69 2.413 1.69 4.256 0 1.107-.282 2.055-.842 2.842-.566.787-1.326 1.357-2.294 1.702 1.244.288 2.231.864 2.954 1.735.723.87 1.088 2.003 1.088 3.392 0 1.881-.61 3.366-1.823 4.454-1.22 1.088-3.175 1.626-5.871 1.626h-10.41V11.25zm8.78 8.57c1.17 0 1.956-.192 2.37-.57.415-.378.617-.915.617-1.613 0-.717-.208-1.254-.616-1.613-.415-.358-1.195-.537-2.339-.537h-3.381v4.333h3.35zm.422 8.697c1.307 0 2.213-.198 2.715-.601.503-.397.755-1.018.755-1.856 0-.839-.258-1.466-.767-1.876-.516-.41-1.433-.614-2.76-.614h-3.708v4.947h3.765zm12.069-17.267h5.43v12.902l8.298-12.902h4.978v21.504h-5.43V19.853l-8.298 12.902h-4.978V11.251zm22.93 0h14.18v4.544h-8.75v16.96h-5.43V11.251zm21.723 21.901c-.22 0-.44-.013-.647-.032a3.982 3.982 0 01-.56-.09v-4.576c.164.02.321.045.484.064.164.02.352.032.572.032.44 0 .805-.025 1.088-.077.283-.05.515-.14.691-.262.182-.122.333-.288.453-.493.119-.205.232-.46.333-.768l-8.448-15.699h5.494l5.613 10.906 4.406-10.906h5.311l-7.058 16.282c-.466 1.043-.918 1.92-1.358 2.624-.44.704-.956 1.286-1.54 1.734a5.392 5.392 0 01-2.037.966c-.785.199-1.716.295-2.797.295zm17.198-21.901h5.431v8.173h7.844V11.25h5.431v21.504h-5.431v-8.787h-7.844v8.787h-5.431V11.251z" fill="#fff"/><path d="M187.817 12.454h5.431v8.512h1.509l6.455-8.512h5.915l-8.146 10.055 8.448 11.45h-6.336l-6.336-9.095h-1.509v9.094h-5.431V12.454zm-24.596-6.637c-9.868 0-17.864 8.148-17.864 18.19 0 10.04 8.002 18.188 17.864 18.188 9.869 0 17.864-8.147 17.864-18.189 0-10.041-7.995-18.189-17.864-18.189zm0 33.274c-8.184 0-14.815-6.752-14.815-15.085 0-8.333 6.631-15.085 14.815-15.085s14.816 6.752 14.816 15.085c0 8.333-6.638 15.085-14.816 15.085z" fill="#20343E"/><path d="M163.221 10.233c-7.468 0-13.527 6.164-13.527 13.773 0 7.603 6.053 13.773 13.527 13.773 7.467 0 13.527-6.163 13.527-13.773-.007-7.603-6.06-13.773-13.527-13.773zm0 26.772c-7.053 0-12.767-5.818-12.767-12.999 0-7.18 5.714-12.998 12.767-12.998 7.052 0 12.766 5.817 12.766 12.998 0 7.181-5.72 12.999-12.766 12.999zm1.389-30.887h-3.627l.629-2.995h2.37l.628 2.995zm-5.783.512l-3.425 1.197-.365-3.04 2.238-.78 1.552 2.623zm-5.305 2.394l-2.86 2.265-1.307-2.758 1.867-1.479 2.3 1.972zm-4.255 4.013l-1.98 3.09-2.119-2.169 1.295-2.022 2.804 1.1zm-2.741 5.209l-.892 3.578-2.691-1.357.579-2.336 3.004.115zm-.93 5.831l.295 3.68-2.979-.397-.195-2.4 2.879-.883zm.974 5.823l1.458 3.38-2.948.614-.949-2.208 2.439-1.785zm2.779 5.185l2.457 2.713-2.589 1.555-1.603-1.772 1.735-2.496zm4.287 3.987l3.187 1.753-1.949 2.33-2.087-1.146.849-2.937zm5.323 2.348l3.57.609-1.1 2.848-2.338-.397-.132-3.06zm5.783.468l3.577-.608-.139 3.06-2.332.396-1.106-2.848zm5.619-1.472l3.187-1.76.849 2.937-2.081 1.152-1.955-2.33zm4.847-3.251l2.451-2.714 1.742 2.496-1.603 1.773-2.59-1.555zm3.545-4.679l1.458-3.38 2.439 1.793-.955 2.208-2.942-.62zm1.861-5.593l.301-3.674 2.879.883-.195 2.4-2.985.39zm-.019-5.908l-.893-3.577 3.005-.116.584 2.336-2.696 1.357zm-1.905-5.58l-1.986-3.092 2.81-1.1 1.295 2.022-2.119 2.17zm-3.583-4.647l-2.86-2.265 2.301-1.972L176.415 8l-1.308 2.758zm-4.871-3.213l-3.425-1.196 1.546-2.624 2.238.78-.359 3.04z" fill="#20343E"/><path d="M132.71 42.08c-5.959 5.46-6.443 14.803-1.081 20.864 5.362 6.06 14.539 6.56 20.492 1.1 5.959-5.458 6.443-14.802 1.081-20.863a14.326 14.326 0 00-20.492-1.101zm17.248 19.52a11.127 11.127 0 01-15.921-.858c-4.168-4.716-3.791-11.974.842-16.21a11.128 11.128 0 0115.922.857c4.161 4.71 3.784 11.968-.843 16.211z" fill="#fff"/><path d="M135.577 45.318c-4.199 3.847-4.545 10.432-.767 14.708 3.778 4.275 10.246 4.627 14.444.78 4.199-3.846 4.545-10.432.767-14.707a10.101 10.101 0 00-14.444-.78zm13.225 14.976a9.432 9.432 0 01-13.483-.723c-3.526-3.993-3.206-10.137.71-13.728a9.432 9.432 0 0113.483.723c3.526 3.988 3.212 10.138-.71 13.728zm-14.533-19.45l-2.696 2.465-1.496-2.65 1.753-1.613 2.439 1.798zm-4.406 4.806l-1.37 3.419-2.483-1.729.899-2.233 2.954.544zm26.066 2.043l-1.76-3.22 2.873-.896 1.15 2.1-2.263 2.016zm-3.626-5.44l-2.961-2.125 2.207-2.074 1.936 1.389-1.182 2.81zm-5.582-3.296l-3.576-.608 1.106-2.842 2.332.39.138 3.06zm-6.436-.506l-3.482 1.037-.22-3.053 2.275-.678 1.427 2.694zm27.292-55.871c-4.941 6.425-3.828 15.711 2.483 20.742 6.311 5.03 15.431 3.897 20.372-2.528 4.94-6.426 3.828-15.712-2.483-20.743-6.311-5.03-15.432-3.897-20.372 2.528zm20.309 16.185c-3.841 4.992-10.925 5.869-15.827 1.965-4.903-3.91-5.764-11.123-1.93-16.115 3.84-4.992 10.924-5.87 15.827-1.965 4.903 3.904 5.764 11.123 1.93 16.115z" fill="#fff"/><path d="M170.953-14.733c-3.482 4.531-2.703 11.079 1.747 14.624 4.451 3.546 10.881 2.752 14.363-1.779 3.483-4.531 2.703-11.078-1.747-14.624-4.45-3.552-10.881-2.752-14.363 1.78zm15.57 12.41c-3.25 4.23-9.253 4.973-13.401 1.664-4.155-3.309-4.884-9.421-1.635-13.645 3.25-4.23 9.253-4.973 13.401-1.664 4.155 3.309 4.884 9.42 1.635 13.645zM166.609-.64l2.282 2.86-2.678 1.39-1.49-1.87 1.886-2.38zm4.495 4.717l3.281 1.568-1.823 2.438-2.137-1.03.679-2.976zm6.065 2.259l3.621-.032-.604 3.002-2.363.019-.654-2.989zm6.424-.634l3.25-1.632.735 2.97-2.124 1.062-1.861-2.4zm5.519-3.417l2.232-2.906 1.929 2.349-1.458 1.9-2.703-1.343z" fill="#fff"/><path d="M201.218 8.954h-1.176v-.428h2.854v.428h-1.182v3.501h-.502v-3.5h.006zm5.324 1.779c-.025-.55-.063-1.21-.057-1.696h-.018c-.132.46-.289.947-.484 1.49l-.679 1.908h-.377l-.623-1.869a17.998 17.998 0 01-.446-1.53h-.013a45.947 45.947 0 01-.075 1.735l-.113 1.683h-.478l.27-3.93h.635l.66 1.902c.158.486.289.915.39 1.324h.019c.094-.396.232-.825.408-1.325l.686-1.9h.635l.238 3.93h-.484l-.094-1.722z" fill="#20343E"/></g><defs><clipPath id="clip0"><path fill="#fff" d="M0 0h220v48H0z"/></clipPath></defs></svg>