<svg width="157" height="33" fill="none" xmlns="http://www.w3.org/2000/svg"><path d="M141.198 7.375h4.376v6.727h1.216l5.201-6.727h4.766l-6.564 7.947L157 24.37h-5.105l-5.105-7.188h-1.216v7.188h-4.376V7.375zM0 19.828h1.945c.213-.551.385-1.183.521-1.907.137-.718.249-1.487.33-2.306.08-.815.142-1.66.182-2.524.04-.865.06-1.71.06-2.54V6.424h12.495v13.404h1.727v6.748h-3.793V23.42H3.793v3.156H0v-6.748zm11.158 0v-9.813H7.12v1.022c0 1.973-.076 3.677-.233 5.109-.152 1.431-.4 2.66-.74 3.677h5.01v.005zM19.57 6.424h8.144c1.995 0 3.444.394 4.35 1.178.907.784 1.363 1.907 1.363 3.364 0 .875-.228 1.624-.679 2.246-.456.622-1.068 1.072-1.848 1.345 1.002.228 1.797.683 2.38 1.371.582.688.876 1.584.876 2.681 0 1.487-.491 2.66-1.469 3.52-.982.86-2.557 1.286-4.73 1.286H19.57V6.424zm7.075 6.773c.942 0 1.575-.152 1.91-.45.334-.299.496-.724.496-1.275 0-.566-.167-.991-.496-1.275-.335-.283-.963-.425-1.884-.425h-2.725v3.425h2.7zm.34 6.874c1.053 0 1.782-.157 2.188-.475.405-.314.607-.805.607-1.467 0-.663-.207-1.159-.618-1.482-.415-.324-1.154-.486-2.223-.486H23.95v3.91h3.034zm9.724-13.647h4.376V16.62L47.77 6.424h4.011V23.42h-4.375V13.222L40.72 23.42h-4.01V6.424zm18.476 0h11.426v3.591h-7.05V23.42h-4.376V6.424zm17.503 17.309a5.84 5.84 0 01-.521-.025 3.261 3.261 0 01-.451-.07V20.02c.132.016.258.036.39.051s.283.025.46.025c.355 0 .649-.02.877-.06a1.44 1.44 0 00.557-.208 1.17 1.17 0 00.365-.39 3.14 3.14 0 00.268-.606L67.826 6.424h4.427l4.522 8.62 3.55-8.62h4.28l-5.687 12.868c-.375.825-.74 1.518-1.094 2.074a5.17 5.17 0 01-1.241 1.37 4.378 4.378 0 01-1.641.765c-.633.156-1.383.232-2.254.232zM86.545 6.424h4.376v6.46h6.321v-6.46h4.376V23.42h-4.376v-6.945h-6.32v6.945h-4.377V6.424z" fill="#fff"/></svg>