<svg xmlns="http://www.w3.org/2000/svg" viewBox="0 0 65.35 65.24"><style>.st4,.st6{fill:#fff}.st6{display:none}</style><path d="M129.5-36.87h-326c-6.6 0-12-5.4-12-12v-51c0-6.6 5.4-12 12-12h326c6.6 0 12 5.4 12 12v51c0 6.6-5.4 12-12 12z" fill="#52acc2" id="фон2"/><g id="фон1"><path fill="#55a5b9" d="M-208.5-111.87h350v75h-350z" id="XMLID_1_"/></g><g id="Слой_1"><path class="st4" d="M32.62 4.21C16.92 4.21 4.2 16.93 4.2 32.63s12.73 28.42 28.42 28.42 28.42-12.73 28.42-28.42S48.32 4.21 32.62 4.21zm0 51.99C19.6 56.2 9.05 45.65 9.05 32.63S19.6 9.06 32.62 9.06s23.57 10.55 23.57 23.57S45.64 56.2 32.62 56.2z"/><path class="st4" d="M32.62 11.11c-11.88 0-21.52 9.63-21.52 21.52 0 11.88 9.63 21.52 21.52 21.52 11.88 0 21.52-9.63 21.52-21.52 0-11.88-9.64-21.52-21.52-21.52zm0 41.83c-11.22 0-20.31-9.09-20.31-20.31s9.09-20.31 20.31-20.31 20.31 9.09 20.31 20.31-9.1 20.31-20.31 20.31zm2.21-48.26h-5.77l1-4.68h3.77zm-9.2.79l-5.45 1.88-.57-4.75 3.56-1.22zm-8.44 3.74l-4.55 3.55-2.08-4.31 2.97-2.31zm-6.77 6.28l-3.15 4.83-3.37-3.4 2.06-3.15zm-4.36 8.14l-1.41 5.59L.36 27.1l.92-3.65zm-1.48 9.11l.47 5.74-4.74-.61L0 34.12zm1.55 9.1l2.32 5.28-4.69.96-1.51-3.45zm4.43 8.1l3.9 4.24-4.12 2.43-2.55-2.77zm6.81 6.23l5.07 2.74-3.1 3.64-3.31-1.8zm8.47 3.67l5.69.95-1.76 4.45-3.71-.62zm9.2.73l5.69-.95-.22 4.78-3.71.62zm8.94-2.3l5.07-2.75 1.35 4.59-3.31 1.79zm7.71-5.08l3.91-4.24 2.76 3.9-2.55 2.77zm5.64-7.31l2.32-5.28 3.88 2.8-1.51 3.45zm2.97-8.74l.47-5.75 4.58 1.39-.31 3.75zm-.04-9.23l-1.41-5.59 4.77-.18.93 3.65zm-3.03-8.72l-3.15-4.83 4.46-1.72 2.06 3.15zm-5.7-7.26l-4.55-3.54 3.66-3.08 2.98 2.31zm-7.75-5.02l-5.45-1.87L40.8.94l3.56 1.22z"/><circle cx="51.17" cy="-74.36" r="5.05" fill="none"/><path class="st6" d="M2.63-46.12C-6.85-37.59-7.62-23 .91-13.52s23.13 10.25 32.6 1.72 10.25-23.13 1.72-32.6-23.12-10.25-32.6-1.72zm27.44 30.5C22.7-9 11.36-9.6 4.73-16.96S-1.3-35.67 6.07-42.29s18.71-6.03 25.33 1.34 6.03 18.7-1.33 25.33z"/><path class="st6" d="M7.19-41.06C.51-35.05-.04-24.76 5.97-18.08c6.01 6.68 16.3 7.23 22.98 1.22s7.23-16.3 1.22-22.98c-6.01-6.68-16.3-7.23-22.98-1.22zm21.04 23.39c-6.24 5.61-15.84 5.1-21.45-1.13-5.61-6.24-5.1-15.84 1.13-21.45 6.24-5.61 15.84-5.1 21.45 1.13 5.61 6.24 5.11 15.84-1.13 21.45zM5.11-48.05L.82-44.2l-2.38-4.14 2.79-2.52zm-7.01 7.51l-2.18 5.34-3.95-2.71 1.43-3.48zm-3.04 9.81l.34 5.76-4.73-.72-.22-3.76zm1.51 10.16l2.8 5.04-4.57 1.4-1.83-3.29zm5.77 8.5l4.71 3.32L3.54-5.5.46-7.67zm8.88 5.15l5.69.95-1.75 4.45-3.72-.62zm10.25.79L27-7.74l.35 4.77-3.61 1.05zm9.57-3.73l4.28-3.86 2.39 4.15-2.8 2.52zm7-7.52l2.19-5.33 3.94 2.7-1.43 3.48zm3.04-9.81l-.34-5.75 4.73.72.22 3.76zm-1.51-10.16l-2.8-5.03 4.57-1.41 1.83 3.29zm-5.77-8.5l-4.71-3.32 3.51-3.24 3.08 2.16zM24.92-51l-5.69-.95 1.76-4.45 3.71.62zm-10.24-.79l-5.54 1.62-.35-4.77L12.41-56zm43.42-87.3c-7.86 10.04-6.09 24.55 3.95 32.41s24.55 6.09 32.41-3.95 6.09-24.55-3.95-32.41-24.55-6.09-32.41 3.95zm32.31 25.29c-6.11 7.8-17.38 9.17-25.18 3.07s-9.17-17.38-3.07-25.18 17.38-9.17 25.18-3.07c7.8 6.1 9.17 17.38 3.07 25.18z"/><path class="st6" d="M63.47-134.89c-5.54 7.08-4.3 17.31 2.78 22.85 7.08 5.54 17.31 4.3 22.85-2.78 5.54-7.08 4.3-17.31-2.78-22.85-7.08-5.55-17.31-4.3-22.85 2.78zm24.77 19.39c-5.17 6.61-14.72 7.77-21.32 2.6-6.61-5.17-7.77-14.72-2.6-21.32 5.17-6.61 14.72-7.77 21.32-2.6 6.61 5.17 7.77 14.72 2.6 21.32zm-28.03-25.93l-3.56 4.54-3.06-3.67 2.32-2.96zm-5.6 8.62l-1.23 5.63-4.35-1.98.8-3.67zm-1.3 10.19l1.33 5.61-4.78.11-.87-3.67zm3.25 9.74l3.63 4.48-4.26 2.17-2.37-2.92zm7.15 7.38l5.22 2.45-2.9 3.81-3.4-1.61zm9.65 3.53l5.76-.05-.96 4.69-3.76.03zm10.22-.99l5.17-2.55 1.17 4.63-3.38 1.67zm8.78-5.34l3.55-4.54 3.07 3.67-2.32 2.97zm5.59-8.61l1.23-5.64 4.36 1.98-.81 3.68zm1.3-10.19l-1.33-5.61 4.78-.11.87 3.66zm-3.24-9.75l-3.64-4.47 4.26-2.17 2.38 2.92zm-7.16-7.37l-5.21-2.45 2.89-3.81 3.41 1.6zm-9.64-3.54l-5.76.05.95-4.68 3.77-.03zm-10.22 1l-5.17 2.55-1.17-4.64 3.37-1.66z"/><path d="M111.62-97.88h-1.87v-.67h4.54v.67h-1.88v5.47h-.8v-5.47zm8.47 2.77c-.04-.86-.1-1.89-.09-2.65h-.03c-.21.72-.46 1.48-.77 2.33l-1.08 2.98h-.6l-.99-2.92c-.29-.87-.54-1.66-.71-2.39h-.02c-.02.77-.06 1.79-.12 2.71l-.16 2.63h-.76l.43-6.14h1.01l1.05 2.97c.25.76.46 1.43.62 2.07h.03c.15-.62.37-1.29.65-2.07l1.09-2.97h1.01l.38 6.14h-.77l-.17-2.69z" fill="#20343e"/></g></svg>