<svg width="35" height="35" fill="none" xmlns="http://www.w3.org/2000/svg"><path d="M15.348 19.652a8.097 8.097 0 01-2.151-3.873c0-.144 0-.43.143-.43l1.291-1.292c.144-.143.287-.43.144-.717l-2.152-3.442c-.143-.287-.43-.287-.717-.144l-3.443 1.578c-.143 0-.287.287-.287.574.144 1.721.86 5.88 5.02 9.897 4.017 4.017 8.177 4.877 9.898 5.02.287 0 .43-.143.574-.286l1.578-3.443c.143-.287 0-.574-.143-.717l-3.3-2.152c-.287-.143-.573-.143-.717.144l-1.29 1.29c-.144.144-.288.144-.431.144-.717-.143-2.439-.43-4.017-2.151zm7.746-2.152c-.287 0-.574-.287-.574-.574 0-2.438-2.008-4.446-4.446-4.446-.287 0-.574-.287-.574-.574s.287-.574.574-.574c3.155 0 5.594 2.582 5.594 5.594 0 .287-.143.574-.574.574z" fill="#55A5B9"/><path d="M26.107 17.5c-.287 0-.574-.287-.574-.574 0-4.16-3.3-7.459-7.46-7.459-.286 0-.573-.287-.573-.574 0-.286.287-.573.574-.573 4.733 0 8.606 3.873 8.606 8.606 0 .144 0 .287-.143.43-.144.144-.287.144-.43.144z" fill="#55A5B9"/><path d="M17.5 0C7.746 0 0 7.746 0 17.5S7.89 35 17.5 35C27.254 35 35 27.11 35 17.5 35 7.746 27.254 0 17.5 0zm0 34.283A16.713 16.713 0 01.717 17.5 16.713 16.713 0 0117.5.717 16.713 16.713 0 0134.283 17.5 16.713 16.713 0 0117.5 34.283z" fill="#20343E"/></svg>