<svg xmlns="http://www.w3.org/2000/svg" viewBox="0 0 54.58 55.12"><style>.st3{fill:#fff}.st4{fill:#20343e}</style><g id="фон1"><path fill="#55a5b9" d="M-271.51 67.14h350v75h-350z" id="XMLID_1_"/></g><g id="Слой_1"><path class="st3" d="M-208.03 110.47h2.99c.32-.85.59-1.83.8-2.93.21-1.11.38-2.29.5-3.55.12-1.26.22-2.55.28-3.89.06-1.33.09-2.64.09-3.91v-6.35h19.21v20.63h2.65v10.39h-5.83V116h-14.88v4.86h-5.83v-10.39zm17.16 0v-15.1h-6.2v1.57c0 3.04-.12 5.66-.36 7.87s-.62 4.09-1.14 5.66h7.7zm12.93-20.63h12.52c3.07 0 5.29.6 6.69 1.81 1.4 1.21 2.09 2.93 2.09 5.18 0 1.35-.35 2.5-1.05 3.46-.7.96-1.64 1.65-2.84 2.07 1.54.35 2.77 1.05 3.66 2.11.9 1.06 1.35 2.44 1.35 4.13 0 2.29-.75 4.1-2.26 5.42-1.51 1.32-3.93 1.98-7.27 1.98h-12.9V89.84zm10.88 10.43c1.44 0 2.42-.23 2.93-.69.51-.46.77-1.11.77-1.96 0-.87-.26-1.53-.77-1.96-.51-.44-1.48-.65-2.9-.65h-4.19v5.27h4.16zm.52 10.58c1.62 0 2.74-.24 3.36-.73.62-.49.93-1.24.93-2.26s-.32-1.78-.95-2.28c-.64-.5-1.78-.75-3.42-.75h-4.6v6.02h4.68zm14.95-21.01h6.73v15.7l10.28-15.7h6.17v26.17h-6.73v-15.7l-10.28 15.7h-6.17V89.84zm28.41 0h17.57v5.53h-10.84V116h-6.73V89.84zm26.91 26.65a7.026 7.026 0 01-1.49-.15v-5.57c.2.03.4.05.6.08.2.03.44.04.71.04.55 0 1-.03 1.35-.09.35-.06.64-.17.86-.32.22-.15.41-.35.56-.6.15-.25.29-.56.41-.93l-10.47-19.1h6.8l6.95 13.27 5.46-13.27h6.58l-8.75 19.81c-.57 1.27-1.13 2.34-1.68 3.2-.55.86-1.18 1.56-1.91 2.11-.72.55-1.56.94-2.52 1.18-.96.22-2.11.34-3.46.34zm21.31-26.65h6.73v9.94h9.72v-9.94h6.73v26.17h-6.73v-10.69h-9.72v10.69h-6.73V89.84z"/><path class="st4" d="M27.29 86.6h8.64v13.3h2.4L48.6 86.6h9.41l-12.96 15.71 13.44 17.88H48.41l-10.08-14.21h-2.4v14.21h-8.64V86.6zm-39.13-10.37c-15.7 0-28.42 12.73-28.42 28.42s12.73 28.42 28.42 28.42 28.42-12.73 28.42-28.42S3.86 76.23-11.84 76.23zm0 51.99c-13.02 0-23.57-10.55-23.57-23.57s10.55-23.57 23.57-23.57 23.57 10.55 23.57 23.57-10.56 23.57-23.57 23.57z"/><path class="st4" d="M-11.84 83.14c-11.88 0-21.52 9.63-21.52 21.52 0 11.88 9.63 21.52 21.52 21.52 11.88 0 21.52-9.63 21.52-21.52C9.67 92.77.04 83.14-11.84 83.14zm0 41.82c-11.22 0-20.31-9.09-20.31-20.31s9.09-20.31 20.31-20.31 20.31 9.09 20.31 20.31-9.1 20.31-20.31 20.31zm2.2-48.26h-5.76l1-4.68h3.76zm-9.19.8l-5.45 1.87-.58-4.75 3.56-1.22zm-8.44 3.74l-4.55 3.54-2.08-4.31 2.97-2.31zm-6.77 6.27l-3.15 4.83-3.37-3.39 2.06-3.16zm-4.36 8.14l-1.42 5.59-4.28-2.12.92-3.65zm-1.48 9.11l.47 5.75-4.74-.61-.31-3.76zm1.55 9.1l2.32 5.28-4.69.96-1.51-3.45zm4.42 8.1l3.91 4.24-4.12 2.43-2.55-2.77zm6.82 6.23l5.07 2.74-3.11 3.64-3.31-1.79zm8.47 3.67l5.68.95-1.75 4.45-3.72-.62zm9.2.73l5.69-.95-.22 4.78-3.71.62zm8.94-2.3l5.07-2.74 1.35 4.58-3.31 1.8zm7.71-5.08l3.9-4.24 2.77 3.9-2.55 2.77zm5.64-7.31l2.32-5.28 3.88 2.8-1.52 3.45zm2.96-8.74l.48-5.74 4.58 1.38-.31 3.75zm-.03-9.23l-1.42-5.59 4.78-.18.93 3.65zm-3.03-8.72l-3.16-4.82 4.47-1.73 2.06 3.16zm-5.7-7.26l-4.55-3.54 3.66-3.08 2.97 2.31zm-7.75-5.02l-5.45-1.87 2.46-4.1 3.56 1.22z"/><circle cx="-11.84" cy="104.65" r="5.05" fill="none"/><path class="st3" d="M-60.38 132.89c-9.48 8.53-10.25 23.13-1.72 32.6 8.53 9.48 23.13 10.25 32.6 1.72 9.48-8.53 10.25-23.13 1.72-32.6s-23.12-10.25-32.6-1.72zm27.44 30.5c-7.37 6.63-18.71 6.03-25.33-1.34-6.63-7.37-6.03-18.71 1.34-25.33 7.37-6.63 18.71-6.03 25.33 1.34s6.02 18.7-1.34 25.33z"/><path class="st3" d="M-55.82 137.95c-6.68 6.01-7.23 16.3-1.22 22.98 6.01 6.68 16.3 7.23 22.98 1.22s7.23-16.3 1.22-22.98c-6.01-6.68-16.3-7.23-22.98-1.22zm21.04 23.4c-6.24 5.61-15.84 5.1-21.45-1.13-5.61-6.24-5.1-15.84 1.13-21.45 6.24-5.61 15.84-5.1 21.45 1.13 5.61 6.23 5.11 15.84-1.13 21.45zm-23.12-30.39l-4.29 3.85-2.38-4.14 2.79-2.52zm-7.01 7.51l-2.18 5.34-3.95-2.7 1.43-3.49zm-3.04 9.81l.34 5.76-4.73-.72-.22-3.76zm1.51 10.16l2.8 5.04-4.57 1.4-1.83-3.29zm5.77 8.5l4.71 3.32-3.51 3.25-3.08-2.17zm8.88 5.16l5.69.94-1.75 4.45-3.72-.62zm10.25.78l5.53-1.61.35 4.77-3.61 1.05zm9.57-3.73l4.28-3.86 2.39 4.15-2.8 2.52zm7-7.52l2.19-5.33 3.94 2.7-1.43 3.48zm3.04-9.81l-.34-5.75 4.73.72.22 3.76zm-1.51-10.16l-2.8-5.03 4.57-1.4 1.83 3.28zm-5.77-8.49l-4.71-3.32 3.51-3.25 3.08 2.17zm-8.88-5.16l-5.69-.94 1.76-4.45 3.71.61zm-10.25-.79l-5.53 1.62-.35-4.77 3.62-1.06zM9.11 13.33c-7.86 10.04-6.09 24.55 3.95 32.41s24.55 6.09 32.41-3.95 6.09-24.55-3.95-32.41-24.55-6.09-32.41 3.95zm32.3 25.29c-6.11 7.8-17.38 9.17-25.18 3.07S7.06 24.3 13.17 16.5s17.38-9.17 25.18-3.07 9.17 17.39 3.06 25.19z"/><path class="st3" d="M14.48 17.53c-5.54 7.08-4.3 17.31 2.78 22.85 7.08 5.54 17.31 4.3 22.85-2.78s4.3-17.31-2.78-22.85c-7.08-5.54-17.31-4.3-22.85 2.78zm24.77 19.4c-5.17 6.61-14.72 7.77-21.32 2.6-6.61-5.17-7.77-14.72-2.6-21.32 5.17-6.61 14.72-7.77 21.32-2.6 6.61 5.16 7.77 14.71 2.6 21.32zM11.22 11l-3.56 4.54-3.06-3.67L6.92 8.9zm-5.6 8.61l-1.23 5.64-4.36-1.98.81-3.68zM4.32 29.8l1.33 5.61-4.78.11L0 31.86zm3.25 9.75l3.63 4.47-4.26 2.17-2.37-2.92zm7.15 7.37l5.22 2.45-2.9 3.81-3.41-1.6zm9.64 3.54l5.77-.05-.96 4.68-3.76.03zm10.23-1l5.17-2.55 1.17 4.64-3.38 1.66zm8.78-5.33l3.55-4.54 3.06 3.67-2.32 2.96zm5.59-8.62l1.23-5.63 4.36 1.98-.81 3.67zm1.3-10.19l-1.33-5.61 4.78-.11.87 3.67zm-3.24-9.74l-3.64-4.48 4.26-2.17 2.37 2.92zM39.86 8.2l-5.21-2.45 2.89-3.81 3.41 1.61zm-9.64-3.53l-5.77.05.96-4.69L29.18 0zm-10.23.99l-5.17 2.55-1.17-4.63 3.38-1.67z"/><path class="st4" d="M48.61 81.14h-1.87v-.67h4.54v.67H49.4v5.47h-.8v-5.47zm8.47 2.77c-.04-.86-.1-1.89-.09-2.65h-.03c-.21.72-.46 1.48-.77 2.33l-1.08 2.98h-.6l-.99-2.92c-.29-.87-.54-1.66-.71-2.39h-.02c-.02.77-.06 1.79-.12 2.71l-.16 2.63h-.76l.43-6.14h1.01l1.05 2.97c.25.76.46 1.43.62 2.07h.03c.15-.62.37-1.29.65-2.07l1.09-2.97h1.01l.38 6.14h-.77l-.17-2.69z"/></g></svg>