<svg xmlns="http://www.w3.org/2000/svg" viewBox="0 0 350 75"><style>.st4,.st5{fill:#20343e}.st5,.st7{display:none}.st7{fill:#fff}</style><g id="фон1"><path fill="#55a5b9" d="M0 0h350v75H0z" id="XMLID_1_"/></g><g id="Слой_1"><path d="M20.01 44.08h3.84c.42-1.09.76-2.34 1.03-3.77.27-1.42.49-2.94.65-4.56.16-1.61.28-3.28.36-4.99.08-1.71.12-3.38.12-5.02v-8.16h24.67v26.5h3.41v13.34H46.6v-6.24H27.5v6.24h-7.49V44.08zm22.03 0v-19.4h-7.97v2.02c0 3.9-.15 7.27-.46 10.1-.3 2.83-.79 5.26-1.46 7.27h9.89zm16.61-26.5h16.08c3.94 0 6.8.78 8.59 2.33s2.69 3.77 2.69 6.65c0 1.73-.45 3.21-1.34 4.44-.9 1.23-2.11 2.12-3.65 2.66 1.98.45 3.55 1.35 4.7 2.71 1.15 1.36 1.73 3.13 1.73 5.3 0 2.94-.97 5.26-2.9 6.96-1.94 1.7-5.05 2.54-9.34 2.54H58.65V17.58zm13.97 13.39c1.86 0 3.11-.3 3.77-.89.66-.59.98-1.43.98-2.52 0-1.12-.33-1.96-.98-2.52-.66-.56-1.9-.84-3.72-.84h-5.38v6.77h5.33zm.67 13.59c2.08 0 3.52-.31 4.32-.94.8-.62 1.2-1.59 1.2-2.9s-.41-2.29-1.22-2.93c-.82-.64-2.28-.96-4.39-.96h-5.9v7.73h5.99zm19.2-26.98h8.64v20.16l13.2-20.16h7.92v33.6h-8.64V31.02l-13.2 20.16h-7.92v-33.6zm36.48 0h22.56v7.1h-13.92v26.5h-8.64v-33.6zm34.56 34.22c-.35 0-.7-.02-1.03-.05-.34-.03-.63-.08-.89-.14v-7.15c.26.03.51.07.77.1s.56.05.91.05c.7 0 1.28-.04 1.73-.12.45-.08.82-.22 1.1-.41.29-.19.53-.45.72-.77.19-.32.37-.72.53-1.2l-13.44-24.53h8.74l8.93 17.04 7.01-17.04h8.45l-11.23 25.44c-.74 1.63-1.46 3-2.16 4.1-.7 1.1-1.52 2.01-2.45 2.71-.93.71-2.01 1.21-3.24 1.51-1.25.31-2.73.46-4.45.46zm27.36-34.22h8.64v12.77h12.48V17.58h8.64v33.6h-8.64V37.45h-12.48v13.73h-8.64v-33.6z" fill="#fff"/><path class="st4" d="M298.8 19.46h8.64v13.3h2.4l10.27-13.3h9.41l-12.96 15.71L330 53.06h-10.08l-10.08-14.21h-2.4v14.21h-8.64v-33.6z"/><path class="st5" d="M259.67 9.09c-15.7 0-28.42 12.73-28.42 28.42s12.73 28.42 28.42 28.42c15.7 0 28.42-12.73 28.42-28.42S275.37 9.09 259.67 9.09zm0 51.99c-13.02 0-23.57-10.55-23.57-23.57s10.55-23.57 23.57-23.57 23.57 10.55 23.57 23.57-10.56 23.57-23.57 23.57z"/><path class="st5" d="M259.67 15.99c-11.88 0-21.52 9.63-21.52 21.52 0 11.88 9.63 21.52 21.52 21.52 11.88 0 21.52-9.63 21.52-21.52-.01-11.88-9.64-21.52-21.52-21.52zm0 41.83c-11.22 0-20.31-9.09-20.31-20.31s9.09-20.31 20.31-20.31c11.22 0 20.31 9.09 20.31 20.31s-9.1 20.31-20.31 20.31zm2.21-48.26h-5.77l1-4.68h3.77zm-9.2.8l-5.45 1.87-.58-4.75 3.56-1.22zm-8.44 3.74l-4.55 3.54-2.08-4.31 2.97-2.31zm-6.77 6.27l-3.15 4.83-3.37-3.39 2.06-3.16zm-4.36 8.14l-1.42 5.59-4.28-2.12.92-3.65zm-1.48 9.11l.47 5.75-4.74-.62-.31-3.75zm1.55 9.1L235.5 52l-4.69.96-1.51-3.45zm4.42 8.1l3.91 4.24-4.12 2.43-2.55-2.77zm6.82 6.23l5.07 2.74-3.1 3.64-3.32-1.79zm8.47 3.67l5.68.95-1.75 4.45-3.72-.62zm9.2.73l5.69-.95-.22 4.78-3.71.62zm8.94-2.3l5.07-2.75 1.35 4.59-3.31 1.8zm7.71-5.08l3.9-4.24 2.77 3.9-2.55 2.77zm5.64-7.31l2.32-5.28 3.88 2.8-1.52 3.45zm2.96-8.74l.48-5.74 4.58 1.38-.31 3.75zm-.03-9.23l-1.42-5.59 4.78-.18.93 3.65zm-3.03-8.72l-3.16-4.83 4.47-1.72 2.06 3.16zm-5.7-7.26l-4.55-3.54 3.66-3.08 2.97 2.31zm-7.75-5.02l-5.45-1.87 2.46-4.1 3.56 1.22z"/><path class="st7" d="M211.13 65.75c-9.48 8.53-10.25 23.13-1.72 32.6s23.13 10.25 32.6 1.72c9.48-8.53 10.25-23.13 1.72-32.6-8.52-9.48-23.12-10.25-32.6-1.72zm27.44 30.5c-7.37 6.63-18.71 6.03-25.33-1.34-6.63-7.37-6.03-18.71 1.34-25.33 7.37-6.63 18.71-6.03 25.33 1.34 6.62 7.36 6.02 18.7-1.34 25.33z"/><path class="st7" d="M215.69 70.81c-6.68 6.01-7.23 16.3-1.22 22.98 6.01 6.68 16.3 7.23 22.98 1.22 6.68-6.01 7.23-16.3 1.22-22.98-6.01-6.68-16.3-7.23-22.98-1.22zm21.04 23.4c-6.24 5.61-15.84 5.1-21.45-1.13-5.61-6.24-5.1-15.84 1.13-21.45 6.24-5.61 15.84-5.1 21.45 1.13 5.61 6.23 5.11 15.84-1.13 21.45zm-23.12-30.39l-4.29 3.85-2.38-4.14 2.79-2.52zm-7.01 7.51l-2.18 5.34-3.95-2.7 1.43-3.49zm-3.04 9.81l.34 5.76-4.73-.72-.22-3.76zm1.51 10.16l2.8 5.04-4.57 1.4-1.83-3.29zm5.77 8.5l4.71 3.32-3.51 3.25-3.08-2.17zm8.88 5.16l5.69.94-1.75 4.45-3.72-.62zm10.25.78l5.53-1.61.35 4.77-3.61 1.05zm9.57-3.73l4.28-3.86 2.39 4.15-2.8 2.52zm7-7.52l2.19-5.33 3.94 2.7-1.43 3.48zm3.04-9.81l-.34-5.75 4.73.72.22 3.76zm-1.51-10.16l-2.8-5.03 4.57-1.4 1.83 3.28zm-5.77-8.5l-4.71-3.32 3.51-3.24 3.08 2.17zm-8.88-5.15l-5.69-.95 1.76-4.44 3.71.61zm-10.24-.79l-5.54 1.62-.35-4.77 3.62-1.06zm43.42-87.3c-7.86 10.04-6.09 24.55 3.95 32.41s24.55 6.09 32.41-3.95 6.09-24.55-3.95-32.41-24.55-6.09-32.41 3.95zm32.31 25.29c-6.11 7.8-17.38 9.17-25.18 3.07-7.8-6.11-9.17-17.38-3.07-25.18 6.11-7.8 17.38-9.17 25.18-3.07s9.17 17.38 3.07 25.18z"/><path class="st7" d="M271.97-23.02c-5.54 7.08-4.3 17.31 2.78 22.85 7.08 5.54 17.31 4.3 22.85-2.78 5.54-7.08 4.3-17.31-2.78-22.85-7.08-5.55-17.31-4.3-22.85 2.78zm24.77 19.39c-5.17 6.61-14.72 7.77-21.32 2.6-6.61-5.17-7.77-14.72-2.6-21.32 5.17-6.61 14.72-7.77 21.32-2.6 6.61 5.17 7.77 14.72 2.6 21.32zm-28.03-25.92l-3.56 4.54-3.06-3.67 2.32-2.97zm-5.6 8.61l-1.23 5.63-4.35-1.97.8-3.68zm-1.3 10.19l1.33 5.61-4.78.11-.87-3.67zM265.06-1l3.63 4.47-4.26 2.17-2.37-2.92zm7.15 7.37l5.22 2.45-2.9 3.81-3.4-1.61zm9.65 3.53l5.76-.05-.96 4.69-3.76.03zm10.22-.99l5.17-2.55 1.17 4.64-3.38 1.66zm8.78-5.34l3.55-4.54 3.07 3.67-2.32 2.97zm5.59-8.61l1.23-5.63 4.36 1.97-.81 3.68zm1.3-10.19l-1.33-5.61 4.78-.11.87 3.66zm-3.24-9.75l-3.64-4.47 4.26-2.17 2.38 2.92zm-7.16-7.37l-5.21-2.45 2.89-3.81 3.41 1.61zm-9.64-3.54l-5.76.06.95-4.69 3.77-.03zm-10.22 1l-5.17 2.55-1.17-4.64 3.37-1.66z"/><path class="st4" d="M320.12 14h-1.87v-.67h4.54V14h-1.88v5.47h-.8V14zm8.47 2.77c-.04-.86-.1-1.89-.09-2.65h-.03c-.21.72-.46 1.48-.77 2.33l-1.08 2.98h-.6l-.99-2.92c-.29-.87-.54-1.66-.71-2.39h-.02c-.02.77-.06 1.79-.12 2.71l-.18 2.63h-.76l.43-6.14h1.01l1.05 2.97c.25.76.46 1.43.62 2.07h.03c.15-.62.37-1.29.65-2.07l1.09-2.97h1.01l.38 6.14h-.77l-.15-2.69z"/></g></svg>