<svg width="30" height="30" fill="none" xmlns="http://www.w3.org/2000/svg"><path d="M15 30c8.284 0 15-6.716 15-15 0-8.284-6.716-15-15-15C6.716 0 0 6.716 0 15c0 8.284 6.716 15 15 15z" fill="url(#paint0_linear)"/><path d="M24.11 8.326c-.062.47-.151.936-.268 1.395l-2.515 11.881c-.035.23-.111.453-.225.657a.73.73 0 01-.864.371 1.729 1.729 0 01-.643-.31c-1.266-.943-2.536-1.872-3.798-2.818a.246.246 0 00-.389.026c-.622.622-1.257 1.227-1.879 1.84a1.11 1.11 0 01-.864.368.431.431 0 01-.458-.346c-.389-1.218-.786-2.432-1.184-3.65-.134-.432-.272-.825-.397-1.24a.364.364 0 00-.277-.272c-1.235-.38-2.47-.77-3.71-1.158a1.94 1.94 0 01-.472-.195.433.433 0 01-.073-.799c.214-.18.46-.317.726-.406l5.059-1.953 10.926-4.212.086-.035c.691-.276 1.214.083 1.218.856zM12.681 20.552c.07-.034.06-.078.065-.112.082-.89.169-1.776.242-2.666a.744.744 0 01.26-.54 2320.66 2320.66 0 007.106-6.407c.151-.134.302-.268.432-.406.06-.06.138-.125.09-.22-.047-.095-.15-.095-.245-.082-.176.03-.343.1-.489.203a2380.573 2380.573 0 01-8.748 5.525.268.268 0 00-.13.376c.363 1.085.713 2.16 1.067 3.253.13.355.247.713.35 1.076z" fill="#FDFDFD"/><defs><linearGradient id="paint0_linear" x1="20.915" y1="1.21" x2="9.09" y2="28.795" gradientUnits="userSpaceOnUse"><stop stop-color="#6BABDE"/><stop offset="1" stop-color="#5894C4"/></linearGradient></defs></svg>