<svg width="30" height="30" fill="none" xmlns="http://www.w3.org/2000/svg"><path d="M15 30c8.284 0 15-6.716 15-15 0-8.284-6.716-15-15-15C6.716 0 0 6.716 0 15c0 8.284 6.716 15 15 15z" fill="#7A519B"/><path d="M20.534 23.8c-.687-.215-.99-.285-1.296-.405-5.884-2.467-10.166-6.546-12.55-12.534a3.245 3.245 0 012.419-4.467c.28-.06.739-.064.864.1a45.288 45.288 0 013.08 4.126c.169.272-.293 1.192-.704 1.52-.937.748-1.015 1.62-.393 2.424a20.578 20.578 0 002.942 3.098c.95.808 1.923.933 2.912-.273.99-1.205 2.1-.738 4.752 1.439 1.098.899 1.378 1.836.432 2.873a24.45 24.45 0 01-2.458 2.1zm2.796-9.494l-.51.907a4.224 4.224 0 01-.651-1.184c-.756-4.303-2.247-5.819-6.615-6.683-.332-.07-.604-.398-.903-.605.329-.177.648-.488.985-.514 3.806-.28 7.652 3.573 7.695 8.079z" fill="#fff"/><path d="M21.337 13.666l-.64.734c-.203-.31-.548-.604-.587-.933-.246-2.32-1.512-3.612-3.798-4.026-.363-.065-.665-.471-.998-.717.432-.16.864-.497 1.258-.432a5.448 5.448 0 014.765 5.374z" fill="#fff"/><path d="M19.296 13.086l-.432.635c-.242-.207-.492-.397-.713-.617a81.559 81.559 0 01-1.602-1.638c-.225-.233-.432-.488-.635-.734.298-.156.591-.432.89-.432 1.205-.03 2.484 1.309 2.492 2.786z" fill="#fff"/></svg>